<?xml version="1.0" encoding="UTF-8"?>
<svg width="32px" height="32px" viewBox="0 0 32 32" version="1.1" xmlns="http://www.w3.org/2000/svg">
    <title>Markdown Viewer</title>
    <g stroke="none" stroke-width="1" fill="none" fill-rule="evenodd">
        <rect fill="#0D6EFD" x="0" y="0" width="32" height="32" rx="6"></rect>
        <path d="M6,8 L26,8 C27.1045695,8 28,8.8954305 28,10 L28,22 C28,23.1045695 27.1045695,24 26,24 L6,24 C4.8954305,24 4,23.1045695 4,22 L4,10 C4,8.8954305 4.8954305,8 6,8 Z M8,20 L8,12 L11,12 L14,15.5 L17,12 L20,12 L20,20 L17,20 L17,15.5 L14,19 L11,15.5 L11,20 L8,20 Z M24,16 L21,13 L21,19 L24,16 Z" fill="#FFFFFF" fill-rule="nonzero"></path>
    </g>
</svg>
